# xmcd
#
# Track frame offsets: 
#        187
#        17710
#        32352
#        49447
#        63962
#        86052
#        104997
#        125805
#        138835
#        154565
#        165567
#        174780
#
# Disc length: 2612 seconds
#
# Revision: 1
# Processed by: cddbd v1.5.2PL0 Copyright (c) Steve Scherf et al.
# Submitted via: ExactAudioCopyFreeDBPlugin 1.0
#
DISCID=9a0a320c
DTITLE=倉本裕基 - TV Drama Theme Collection
DYEAR=1995
DGENRE=Fusion
TTITLE0=タイムレス・ラブ(NHKドラマ新銀河シリーズ「ラスト・ラブ」より)
TTITLE1=ときめきの時
TTITLE2=愛のかたち
TTITLE3=哀しみを超えて
TTITLE4=海の見える窓
TTITLE5=ノーブルマインド(フジテレビ系列月曜ドラマシリーズ「君が見えない」より)
TTITLE6=見えぬ想い
TTITLE7=心の軌跡
TTITLE8=愛すること(NHKドラマ新銀河シリーズ「ラスト・ラブ」より)
TTITLE9=Love letters
TTITLE10=You are too beautiful
TTITLE11=タイムレス・ラブ(Ending version)
EXTD=YEAR: 1995 ID3G: 30
EXTT0=
EXTT1=
EXTT2=
EXTT3=
EXTT4=
EXTT5=
EXTT6=
EXTT7=
EXTT8=
EXTT9=
EXTT10=
EXTT11=
PLAYORDER=
